<?xml version="1.0" encoding="UTF-8" standalone="no"?>
<svg
   xmlns:dc="http://purl.org/dc/elements/1.1/"
   xmlns:cc="http://creativecommons.org/ns#"
   xmlns:rdf="http://www.w3.org/1999/02/22-rdf-syntax-ns#"
   xmlns:svg="http://www.w3.org/2000/svg"
   xmlns="http://www.w3.org/2000/svg"
   viewBox="0 0 1280.0126 720"
   height="720"
   width="1280.0126"
   xml:space="preserve"
   id="svg2"
   version="1.1"><metadata
     id="metadata8"><rdf:RDF><cc:Work
         rdf:about=""><dc:format>image/svg+xml</dc:format><dc:type
           rdf:resource="http://purl.org/dc/dcmitype/StillImage" /></cc:Work></rdf:RDF></metadata><defs
     id="defs6"><clipPath
       id="clipPath18"
       clipPathUnits="userSpaceOnUse"><path
         style="clip-rule:evenodd"
         id="path16"
         d="M 0,0.028 H 959.981 V 539.999 H 0 Z" /></clipPath></defs><g
     transform="matrix(1.3333333,0,0,-1.3333333,0,720)"
     id="g10"><g
       id="g12"><g
         clip-path="url(#clipPath18)"
         id="g14"><path
           id="path20"
           style="fill:#ffffff;fill-opacity:1;fill-rule:evenodd;stroke:none"
           d="M 0,540 H 959.981 V 0.028 L 0,0.028 Z" /><path
           id="path22"
           style="fill:#ffffff;fill-opacity:1;fill-rule:evenodd;stroke:none"
           d="M 0,540 H 960.009 V 0 H 0 Z" /><path
           id="path24"
           style="fill:#212a3e;fill-opacity:1;fill-rule:evenodd;stroke:none"
           d="M 478.261,0.057 H -5.726 V 540.028 H 962.249 V 0.057 Z" /><g
           id="g26"><text
             id="text30"
             style="font-style:italic;font-variant:normal;font-weight:bold;font-size:96.00900269px;font-family:NotoSans;-inkscape-font-specification:NotoSans-BoldItalic;writing-mode:lr-tb;fill:#000000;fill-opacity:1;fill-rule:nonzero;stroke:none"
             transform="matrix(1,0,0,-1,151.937,232.271)"><tspan
               id="tspan28"
               y="0"
               x="0 50.980778 108.01012 147.37381 203.53908 228.50142 284.66669 342.65613 367.61847 418.59924 475.6286 528.14551">Fato ou Fake</tspan></text>
</g><g
           id="g32"><text
             id="text36"
             style="font-style:italic;font-variant:normal;font-weight:bold;font-size:96.00900269px;font-family:NotoSans;-inkscape-font-specification:NotoSans-BoldItalic;writing-mode:lr-tb;fill:#ffffff;fill-opacity:1;fill-rule:nonzero;stroke:none"
             transform="matrix(1,0,0,-1,146.948,237.458)"><tspan
               id="tspan34"
               y="0"
               x="0 50.980778 108.01012 147.37381 203.53908 228.50142 284.66669 342.65613 367.61847 418.59924 475.6286 528.14551">Fato ou Fake</tspan></text>
</g></g></g></g></svg>