<?xml version="1.0" encoding="UTF-8" standalone="no"?>
<svg
   xmlns:dc="http://purl.org/dc/elements/1.1/"
   xmlns:cc="http://creativecommons.org/ns#"
   xmlns:rdf="http://www.w3.org/1999/02/22-rdf-syntax-ns#"
   xmlns:svg="http://www.w3.org/2000/svg"
   xmlns="http://www.w3.org/2000/svg"
   viewBox="0 0 1280.0126 720"
   height="720"
   width="1280.0126"
   xml:space="preserve"
   id="svg2"
   version="1.1"><metadata
     id="metadata8"><rdf:RDF><cc:Work
         rdf:about=""><dc:format>image/svg+xml</dc:format><dc:type
           rdf:resource="http://purl.org/dc/dcmitype/StillImage" /></cc:Work></rdf:RDF></metadata><defs
     id="defs6"><clipPath
       id="clipPath18"
       clipPathUnits="userSpaceOnUse"><path
         style="clip-rule:evenodd"
         id="path16"
         d="M 0,0.028 H 959.981 V 539.999 H 0 Z" /></clipPath></defs><g
     transform="matrix(1.3333333,0,0,-1.3333333,0,720)"
     id="g10"><g
       id="g12"><g
         clip-path="url(#clipPath18)"
         id="g14"><path
           id="path20"
           style="fill:#ffffff;fill-opacity:1;fill-rule:evenodd;stroke:none"
           d="M 0,540 H 959.981 V 0.028 L 0,0.028 Z" /><path
           id="path22"
           style="fill:#ffffff;fill-opacity:1;fill-rule:evenodd;stroke:none"
           d="M 0,540 H 960.009 V 0 H 0 Z" /><path
           id="path24"
           style="fill:#394867;fill-opacity:1;fill-rule:evenodd;stroke:none"
           d="M 6.094,0.057 H -0.028 V 540.028 H 12.189 V 0.057 Z" /><path
           id="path26"
           style="fill:#212a3e;fill-opacity:1;fill-rule:evenodd;stroke:none"
           d="M 479.169,0.057 H 12.217 V 540.028 H 946.091 V 0.057 Z" /><path
           id="path28"
           style="fill:#9ba4b5;fill-opacity:1;fill-rule:evenodd;stroke:none"
           d="m 953.065,0.057 h -6.917 v 539.971 h 13.805 V 0.057 Z" /><g
           id="g30"><text
             id="text34"
             style="font-style:italic;font-variant:normal;font-weight:bold;font-size:28.00600052px;font-family:NotoSans;-inkscape-font-specification:NotoSans-BoldItalic;writing-mode:lr-tb;fill:#ffffff;fill-opacity:1;fill-rule:nonzero;stroke:none"
             transform="matrix(1,0,0,-1,-341.405,271.276)"><tspan
               id="tspan32"
               y="0"
               x="0 20.416374 27.697933 44.249481 61.165104 76.764442 84.074013 99.673355 106.95491 121.8261 138.37764 153.75294 169.35228 176.66185 193.57747 208.58868 230.65741">O que é Fake news</tspan></text>
</g><g
           id="g36"><text
             id="text40"
             style="font-style:italic;font-variant:normal;font-weight:bold;font-size:47.99100113px;font-family:NotoSans;-inkscape-font-specification:NotoSans-BoldItalic;writing-mode:lr-tb;fill:#ffffff;fill-opacity:1;fill-rule:nonzero;stroke:none"
             transform="matrix(1,0,0,-1,170.277,488.466)"><tspan
               id="tspan38"
               y="0"
               x="0 29.370493 57.445229 100.87708 128.95181 141.42947 155.6828 184.18945 210.92044 239.90701 259.58331 273.83664 305.99063 329.17026 357.67691 377.83313 390.31079 408.16345 436.6701 462.92117 489.65216 502.12982 531.11639 556.88757 594.65649">Como identifcar fake news</tspan></text>
</g><g
           id="g42"><text
             id="text46"
             style="font-style:italic;font-variant:normal;font-weight:bold;font-size:39.99700165px;font-family:NotoSans;-inkscape-font-specification:NotoSans-BoldItalic;writing-mode:lr-tb;fill:#ffffff;fill-opacity:1;fill-rule:nonzero;stroke:none"
             transform="matrix(1,0,0,-1,428.173,403.172)"><tspan
               id="tspan44"
               y="0"
               x="0 21.958353 34.79739 57.59568 79.794014 96.592758 108.47186 135.22986 154.5484 178.30663 195.10536 205.50459 229.2628 239.66202 254.54091 277.93915 302.05734 318.45612">1-Verifcar a fonte</tspan></text>
</g><g
           id="g48"><text
             id="text52"
             style="font-style:italic;font-variant:normal;font-weight:bold;font-size:39.99700165px;font-family:NotoSans;-inkscape-font-specification:NotoSans-BoldItalic;writing-mode:lr-tb;fill:#ffffff;fill-opacity:1;fill-rule:nonzero;stroke:none"
             transform="matrix(1,0,0,-1,138.416,329.443)"><tspan
               id="tspan50"
               y="0"
               x="0 21.958353 34.79739 57.59568 79.794014 96.592758 108.47186 135.22986 154.5484 178.30663 195.10536 205.50459 228.90283 253.02103 269.4198 285.4986 309.25681 328.17538 338.57462 353.45349 376.85175 400.96994 417.36868 439.56702">2-Verifcar outras fontes</tspan></text>
</g><g
           id="g54"><text
             id="text58"
             style="font-style:italic;font-variant:normal;font-weight:bold;font-size:39.99700165px;font-family:NotoSans;-inkscape-font-specification:NotoSans-BoldItalic;writing-mode:lr-tb;fill:#ffffff;fill-opacity:1;fill-rule:nonzero;stroke:none"
             transform="matrix(1,0,0,-1,431.235,273.827)"><tspan
               id="tspan56"
               y="0"
               x="0 21.958353 34.79739 57.59568 79.794014 96.592758 108.47186 135.22986 154.5484 178.30663 195.10536 205.50459 229.2628 239.66202 251.54114 287.69843 311.45663 335.21484 357.41318">3-Verifcar a imagem</tspan></text>
</g><g
           id="g60"><text
             id="text64"
             style="font-style:italic;font-variant:normal;font-weight:bold;font-size:39.99700165px;font-family:Carlito;-inkscape-font-specification:Carlito-BoldItalic;writing-mode:lr-tb;fill:#ffffff;fill-opacity:1;fill-rule:nonzero;stroke:none"
             transform="matrix(1,0,0,-1,141.477,223.03)"><tspan
               id="tspan62"
               y="0"
               x="0 20.238482 32.477566 54.075943 73.754471 87.793411 97.592682 119.75101 135.82982 156.90823 170.94717 179.9465 201.02492 210.02425 231.10266 252.18109 265.50009">4-Verifcar a data</tspan></text>
</g><g
           id="g66"><text
             id="text70"
             style="font-style:italic;font-variant:normal;font-weight:bold;font-size:39.99700165px;font-family:Carlito;-inkscape-font-specification:Carlito-BoldItalic;writing-mode:lr-tb;fill:#ffffff;fill-opacity:1;fill-rule:nonzero;stroke:none"
             transform="matrix(1,0,0,-1,427.72,166.28)"><tspan
               id="tspan68"
               y="0"
               x="0 20.238482 32.477566 54.075943 73.754471 87.793411 97.592682 119.75101 135.82982 156.90823 170.94717 179.9465 201.02492 210.02425 223.46324 244.54166">5-Verifcar o tom</tspan></text>
</g></g></g></g></svg>